<?xml version="1.0" standalone="no"?>
<!DOCTYPE svg PUBLIC "-//W3C//DTD SVG 20010904//EN"
 "http://www.w3.org/TR/2001/REC-SVG-20010904/DTD/svg10.dtd">
<svg version="1.0" xmlns="http://www.w3.org/2000/svg"
 width="1056.000000pt" height="1056.000000pt" viewBox="0 0 1056.000000 1056.000000"
 preserveAspectRatio="xMidYMid meet">
<metadata>
Created by potrace 1.14, written by Peter Selinger 2001-2017
</metadata>
<g transform="translate(0.000000,1056.000000) scale(0.100000,-0.100000)"
fill="#000000" stroke="none">
<path d="M4899 10264 c-24 -13 -57 -31 -74 -40 -16 -8 -43 -23 -60 -34 -16
-10 -68 -40 -115 -67 -47 -26 -86 -50 -88 -55 -2 -4 -8 -8 -13 -8 -4 0 -43
-20 -85 -45 -41 -25 -77 -45 -79 -45 -3 0 -111 -63 -155 -90 -18 -11 -95 -55
-165 -95 -27 -15 -54 -31 -60 -35 -5 -4 -30 -19 -55 -32 -88 -50 -315 -181
-340 -196 -14 -9 -27 -17 -30 -17 -3 0 -24 -13 -47 -28 -24 -15 -47 -27 -53
-27 -5 0 -10 -5 -10 -12 0 -6 -3 -8 -7 -5 -3 4 -13 1 -22 -6 -23 -20 -178
-107 -190 -107 -6 0 -14 -6 -18 -12 -4 -7 -26 -22 -48 -33 -22 -11 -46 -26
-53 -32 -7 -7 -18 -13 -23 -13 -7 0 -103 -54 -159 -90 -8 -6 -40 -23 -70 -40
-30 -17 -71 -40 -90 -52 -19 -11 -53 -31 -75 -42 -22 -12 -51 -29 -65 -38 -48
-31 -115 -69 -142 -81 -16 -6 -28 -15 -28 -19 0 -4 -5 -8 -10 -8 -6 0 -40 -18
-76 -40 -36 -22 -70 -40 -75 -40 -5 0 -9 -4 -9 -10 0 -5 -9 -10 -19 -10 -11 0
-21 -4 -23 -8 -3 -8 -51 -37 -153 -93 -33 -18 -61 -36 -63 -41 -2 -4 -7 -8
-12 -8 -7 0 -70 -35 -297 -166 -54 -31 -118 -68 -143 -82 -55 -31 -109 -63
-135 -80 -11 -6 -27 -15 -35 -19 -8 -3 -39 -21 -68 -40 -29 -18 -56 -33 -61
-33 -5 0 -16 -6 -23 -12 -8 -7 -38 -26 -68 -42 -30 -16 -57 -32 -60 -35 -5 -6
-53 -33 -125 -70 -16 -9 -32 -18 -35 -21 -3 -3 -22 -14 -42 -25 -21 -11 -38
-24 -38 -29 0 -5 -3 -7 -6 -3 -3 3 -34 -12 -69 -33 -35 -21 -83 -49 -107 -61
-23 -12 -46 -26 -50 -32 -3 -6 -6 -1118 -6 -2472 l0 -2462 41 -22 c23 -12 60
-33 82 -46 22 -13 56 -32 75 -42 19 -10 37 -20 40 -23 3 -3 16 -11 29 -18 13
-8 40 -23 60 -35 20 -11 49 -27 64 -36 16 -9 36 -20 45 -26 9 -5 60 -34 112
-64 52 -30 97 -57 100 -60 3 -3 21 -14 40 -23 19 -10 42 -22 50 -28 22 -14
116 -68 180 -103 30 -16 62 -35 70 -41 8 -7 29 -18 45 -26 17 -8 32 -17 35
-20 5 -5 41 -25 100 -57 19 -10 37 -21 40 -24 3 -3 64 -38 135 -79 72 -40 138
-80 149 -89 10 -9 20 -14 22 -11 2 3 13 -3 24 -13 11 -9 27 -17 35 -17 8 0 15
-4 15 -10 0 -5 7 -10 15 -10 8 0 15 -4 15 -10 0 -5 4 -10 9 -10 14 0 155 -81
159 -91 2 -5 12 -9 23 -9 10 0 19 -4 19 -8 0 -4 12 -13 28 -20 31 -13 109 -57
126 -71 6 -4 31 -20 56 -33 65 -36 171 -98 200 -116 14 -9 27 -17 30 -17 5 0
48 -26 228 -132 41 -24 78 -43 83 -43 5 0 9 -4 9 -8 0 -4 12 -13 28 -20 37
-16 115 -61 122 -70 3 -4 11 -8 19 -10 8 -2 26 -11 40 -21 14 -10 46 -29 71
-43 52 -29 357 -205 410 -237 19 -11 44 -25 55 -31 11 -5 38 -21 60 -34 22
-14 57 -34 77 -45 64 -35 83 -46 88 -51 4 -4 29 -18 115 -64 11 -6 22 -14 25
-17 3 -3 30 -19 60 -36 30 -17 127 -72 215 -123 88 -51 176 -101 195 -112 35
-20 99 -58 155 -91 16 -10 38 -20 48 -23 9 -4 17 -10 17 -14 0 -5 12 -13 28
-19 15 -6 41 -19 57 -29 17 -10 57 -34 90 -52 33 -18 71 -40 85 -49 39 -25 61
-38 115 -67 28 -15 73 -41 100 -59 l50 -32 73 44 c41 24 78 43 83 43 5 0 9 5
9 10 0 6 4 10 9 10 13 0 155 82 163 94 4 6 8 7 8 3 0 -5 12 0 28 11 15 10 62
39 106 63 43 24 99 57 125 72 25 15 57 33 71 40 14 7 47 27 75 45 27 17 55 32
62 32 7 0 13 4 13 9 0 5 16 15 35 22 19 7 35 17 35 21 0 4 4 8 9 8 5 0 55 27
110 60 56 33 106 60 111 60 6 0 10 4 10 9 0 5 11 12 24 15 14 3 31 12 38 19 8
6 29 20 48 31 19 10 49 26 65 36 17 10 131 76 255 148 124 71 241 139 260 151
19 11 42 24 50 28 8 3 39 21 68 40 29 18 54 33 57 33 2 0 28 14 57 31 29 18
69 41 88 52 19 11 49 28 65 38 17 10 53 30 80 44 28 15 57 33 65 39 8 6 35 22
60 36 25 13 73 40 107 61 35 21 72 40 83 44 11 3 20 11 20 16 0 5 5 9 11 9 6
0 60 29 120 65 61 36 115 65 120 65 5 0 9 5 9 10 0 6 4 10 10 10 5 0 33 14 62
31 80 48 119 70 163 93 22 12 42 24 45 27 3 4 29 19 59 35 30 16 61 34 70 39
9 6 54 32 101 59 47 27 93 55 103 64 9 8 17 11 17 7 0 -4 8 -2 18 6 15 13 40
27 107 63 11 6 22 14 25 17 3 3 37 23 75 44 39 21 87 49 107 62 21 12 42 23
48 23 5 0 10 3 10 8 0 4 20 16 45 27 25 11 45 23 45 27 0 5 6 8 14 8 8 0 21 6
28 13 7 6 27 19 43 27 17 8 36 21 43 28 7 6 20 12 27 12 7 0 20 6 27 14 8 7
34 24 58 36 l44 22 -25 19 c-13 11 -34 22 -46 25 -13 3 -23 10 -23 15 0 5 -4
9 -9 9 -4 0 -60 30 -122 66 -154 90 -437 253 -474 274 -16 9 -57 32 -90 51
-33 18 -61 37 -63 41 -2 4 -7 8 -12 8 -12 0 -224 122 -232 134 -4 6 -8 7 -8 2
0 -5 -8 -3 -17 5 -10 8 -31 21 -48 29 -16 8 -36 21 -43 27 -7 7 -24 16 -38 19
-13 3 -24 10 -24 15 0 5 -4 9 -9 9 -7 0 -88 46 -161 90 -25 16 -142 83 -182
105 -20 11 -77 44 -127 72 -50 29 -95 53 -101 53 -5 0 -10 4 -10 10 0 5 -11
12 -25 16 -14 3 -25 10 -25 16 0 5 -4 7 -9 4 -5 -4 -11 -2 -13 2 -1 5 -30 23
-63 42 -33 18 -63 38 -66 43 -3 5 -10 9 -15 9 -18 1 -54 22 -54 31 0 9 40 87
50 97 5 5 15 22 58 99 13 25 33 58 43 73 11 14 19 28 19 31 0 3 19 38 43 79
24 40 55 94 69 119 47 83 53 94 58 99 3 3 11 16 18 30 7 14 23 43 36 65 13 22
32 56 43 75 11 19 58 100 104 180 46 80 90 157 98 173 8 15 18 27 23 27 4 0 8
9 8 20 0 11 3 20 8 20 4 0 12 10 18 23 22 46 67 123 82 140 8 9 12 17 8 17 -4
0 2 13 13 28 10 15 34 55 52 87 18 33 35 62 39 65 3 3 12 20 19 38 8 17 17 32
21 32 4 0 10 8 13 18 3 9 21 42 39 74 80 137 138 241 138 249 0 4 4 9 8 11 5
2 22 28 39 58 70 126 87 155 95 158 4 2 8 12 8 22 0 10 4 20 8 22 10 4 92 146
92 159 0 5 4 9 9 9 5 0 12 9 16 19 3 11 51 98 107 193 92 157 131 227 162 283
6 11 13 22 16 25 3 3 14 23 25 45 11 22 28 48 38 59 9 11 17 24 17 28 0 5 18
37 39 73 22 36 42 74 46 85 3 11 11 20 16 20 5 0 9 4 9 10 0 7 58 114 110 200
5 8 35 60 66 115 32 55 64 110 71 122 14 20 12 23 -29 42 -24 11 -63 32 -88
47 -25 15 -65 38 -90 52 -25 14 -62 36 -82 49 -21 12 -42 23 -48 23 -5 0 -10
3 -10 8 0 4 -19 16 -43 27 -23 11 -44 22 -47 25 -3 4 -36 24 -75 45 -38 21
-114 65 -168 97 -53 32 -100 58 -103 58 -3 0 -18 9 -33 19 -14 11 -47 30 -71
44 -25 13 -74 41 -110 62 -36 20 -84 48 -108 62 -23 13 -93 53 -154 89 -61 35
-115 64 -119 64 -5 0 -9 4 -9 9 0 5 -6 11 -13 13 -10 2 -256 141 -317 178 -66
41 -173 100 -181 100 -5 0 -9 5 -9 10 0 6 -4 10 -9 10 -5 0 -48 23 -96 50 -48
28 -91 50 -96 50 -5 0 -9 5 -9 10 0 6 -4 10 -9 10 -7 0 -48 22 -119 65 -9 6
-64 37 -122 70 -57 33 -114 65 -125 72 -11 7 -31 18 -45 25 -14 7 -27 15 -30
18 -3 3 -18 12 -35 20 -16 8 -32 17 -35 20 -3 3 -25 16 -50 29 -25 13 -52 30
-61 37 -8 8 -23 14 -31 14 -9 0 -18 4 -20 8 -1 5 -34 26 -73 47 -38 21 -72 42
-75 45 -3 3 -20 12 -37 19 -18 8 -33 17 -33 21 0 4 -8 10 -17 13 -18 6 -119
62 -138 77 -5 4 -30 18 -55 32 -25 14 -196 112 -380 218 -184 106 -355 204
-380 218 -25 13 -52 30 -60 36 -8 7 -26 18 -40 24 -14 7 -43 23 -65 36 -43 26
-63 37 -139 80 -27 16 -109 64 -183 107 -75 43 -136 79 -138 79 -3 0 -212 121
-261 151 -30 18 -31 18 -75 -7z"/>
</g>
</svg>
